#N canvas 239 22 897 700 10;
#X obj 126 100 bng 70 400 100 0 empty empty Clique_pour_ajouter_un_lion.
0 -13 1 20 -262144 -260097 -1;
#N canvas 785 176 427 409 out 0;
#X obj 51 70 random 4;
#X floatatom 51 94 5 0 0 0 - - -;
#X obj 51 45 delay 500;
#X obj 51 22 inlet;
#X obj 67 247 outlet;
#X obj 88 165 route 0 1 2 3;
#X obj 115 249 outlet;
#X obj 169 250 outlet;
#X obj 217 252 outlet;
#X connect 0 0 1 0;
#X connect 1 0 5 0;
#X connect 2 0 0 0;
#X connect 3 0 2 0;
#X connect 5 0 4 0;
#X connect 5 1 6 0;
#X connect 5 2 7 0;
#X connect 5 3 8 0;
#X restore 126 176 pd out;
#X obj 206 100 bng 70 400 100 0 empty empty empty 17 7 0 10 -262144
-260097 -1;
#N canvas 785 176 427 409 out 0;
#X obj 51 70 random 4;
#X floatatom 51 94 5 0 0 0 - - -;
#X obj 51 45 delay 500;
#X obj 51 22 inlet;
#X obj 67 247 outlet;
#X obj 88 165 route 0 1 2 3;
#X obj 115 249 outlet;
#X obj 169 250 outlet;
#X obj 217 252 outlet;
#X connect 0 0 1 0;
#X connect 1 0 5 0;
#X connect 2 0 0 0;
#X connect 3 0 2 0;
#X connect 5 0 4 0;
#X connect 5 1 6 0;
#X connect 5 2 7 0;
#X connect 5 3 8 0;
#X restore 206 176 pd out;
#X obj 286 100 bng 70 400 100 0 empty empty empty 17 7 0 10 -262144
-260097 -1;
#N canvas 785 176 427 409 out 0;
#X obj 51 70 random 4;
#X floatatom 51 94 5 0 0 0 - - -;
#X obj 51 45 delay 500;
#X obj 51 22 inlet;
#X obj 67 247 outlet;
#X obj 88 165 route 0 1 2 3;
#X obj 115 249 outlet;
#X obj 169 250 outlet;
#X obj 217 252 outlet;
#X connect 0 0 1 0;
#X connect 1 0 5 0;
#X connect 2 0 0 0;
#X connect 3 0 2 0;
#X connect 5 0 4 0;
#X connect 5 1 6 0;
#X connect 5 2 7 0;
#X connect 5 3 8 0;
#X restore 286 176 pd out;
#X obj 366 100 bng 70 400 100 0 empty empty empty 17 7 0 10 -262144
-260097 -1;
#N canvas 785 176 427 409 out 0;
#X obj 51 70 random 4;
#X floatatom 51 94 5 0 0 0 - - -;
#X obj 51 45 delay 500;
#X obj 51 22 inlet;
#X obj 67 247 outlet;
#X obj 88 165 route 0 1 2 3;
#X obj 115 249 outlet;
#X obj 169 250 outlet;
#X obj 217 252 outlet;
#X connect 0 0 1 0;
#X connect 1 0 5 0;
#X connect 2 0 0 0;
#X connect 3 0 2 0;
#X connect 5 0 4 0;
#X connect 5 1 6 0;
#X connect 5 2 7 0;
#X connect 5 3 8 0;
#X restore 366 176 pd out;
#X obj 444 100 bng 70 400 100 0 empty empty empty 17 7 0 10 -262144
-260097 -1;
#N canvas 785 176 427 409 out 0;
#X obj 51 70 random 4;
#X floatatom 51 94 5 0 0 0 - - -;
#X obj 51 45 delay 500;
#X obj 51 22 inlet;
#X obj 67 247 outlet;
#X obj 88 165 route 0 1 2 3;
#X obj 115 249 outlet;
#X obj 169 250 outlet;
#X obj 217 252 outlet;
#X connect 0 0 1 0;
#X connect 1 0 5 0;
#X connect 2 0 0 0;
#X connect 3 0 2 0;
#X connect 5 0 4 0;
#X connect 5 1 6 0;
#X connect 5 2 7 0;
#X connect 5 3 8 0;
#X restore 444 176 pd out;
#X obj 522 100 bng 70 400 100 0 empty empty empty 17 7 0 10 -262144
-260097 -1;
#N canvas 785 176 191 259 out 0;
#X obj 51 70 random 4;
#X floatatom 51 94 5 0 0 0 - - -;
#X obj 51 45 delay 500;
#X obj 51 22 inlet;
#X obj 51 218 outlet;
#X obj 51 121 route 0 1 2 3;
#X obj 69 195 outlet;
#X obj 88 170 outlet;
#X obj 107 147 outlet;
#X connect 0 0 1 0;
#X connect 1 0 5 0;
#X connect 2 0 0 0;
#X connect 3 0 2 0;
#X connect 5 0 4 0;
#X connect 5 1 6 0;
#X connect 5 2 7 0;
#X connect 5 3 8 0;
#X restore 522 176 pd out;
#X obj 602 100 bng 70 400 100 0 empty empty empty 17 7 0 10 -262144
-260097 -1;
#N canvas 785 176 427 409 out 0;
#X obj 51 70 random 4;
#X floatatom 51 94 5 0 0 0 - - -;
#X obj 51 45 delay 500;
#X obj 51 22 inlet;
#X obj 67 247 outlet;
#X obj 88 165 route 0 1 2 3;
#X obj 115 249 outlet;
#X obj 169 250 outlet;
#X obj 217 252 outlet;
#X connect 0 0 1 0;
#X connect 1 0 5 0;
#X connect 2 0 0 0;
#X connect 3 0 2 0;
#X connect 5 0 4 0;
#X connect 5 1 6 0;
#X connect 5 2 7 0;
#X connect 5 3 8 0;
#X restore 602 176 pd out;
#X obj 682 100 bng 70 400 100 0 empty empty empty 17 7 0 10 -262144
-260097 -1;
#N canvas 785 176 427 409 out 0;
#X obj 51 70 random 4;
#X floatatom 51 94 5 0 0 0 - - -;
#X obj 51 45 delay 500;
#X obj 51 22 inlet;
#X obj 67 247 outlet;
#X obj 88 165 route 0 1 2 3;
#X obj 115 249 outlet;
#X obj 169 250 outlet;
#X obj 217 252 outlet;
#X connect 0 0 1 0;
#X connect 1 0 5 0;
#X connect 2 0 0 0;
#X connect 3 0 2 0;
#X connect 5 0 4 0;
#X connect 5 1 6 0;
#X connect 5 2 7 0;
#X connect 5 3 8 0;
#X restore 682 176 pd out;
#X obj 126 199 bng 70 400 100 0 empty empty empty 17 7 0 10 -262144
-260097 -1;
#N canvas 785 176 427 409 out 0;
#X obj 51 70 random 4;
#X floatatom 51 94 5 0 0 0 - - -;
#X obj 51 45 delay 500;
#X obj 51 22 inlet;
#X obj 67 247 outlet;
#X obj 88 165 route 0 1 2 3;
#X obj 115 249 outlet;
#X obj 169 250 outlet;
#X obj 217 252 outlet;
#X connect 0 0 1 0;
#X connect 1 0 5 0;
#X connect 2 0 0 0;
#X connect 3 0 2 0;
#X connect 5 0 4 0;
#X connect 5 1 6 0;
#X connect 5 2 7 0;
#X connect 5 3 8 0;
#X restore 126 275 pd out;
#X obj 206 199 bng 70 400 100 0 empty empty empty 17 7 0 10 -262144
-260097 -1;
#N canvas 785 176 427 409 out 0;
#X obj 51 70 random 4;
#X floatatom 51 94 5 0 0 0 - - -;
#X obj 51 45 delay 500;
#X obj 51 22 inlet;
#X obj 67 247 outlet;
#X obj 88 165 route 0 1 2 3;
#X obj 115 249 outlet;
#X obj 169 250 outlet;
#X obj 217 252 outlet;
#X connect 0 0 1 0;
#X connect 1 0 5 0;
#X connect 2 0 0 0;
#X connect 3 0 2 0;
#X connect 5 0 4 0;
#X connect 5 1 6 0;
#X connect 5 2 7 0;
#X connect 5 3 8 0;
#X restore 206 275 pd out;
#X obj 286 199 bng 70 400 100 0 empty empty empty 17 7 0 10 -262144
-260097 -1;
#N canvas 785 176 427 409 out 0;
#X obj 51 70 random 4;
#X floatatom 51 94 5 0 0 0 - - -;
#X obj 51 45 delay 500;
#X obj 51 22 inlet;
#X obj 67 247 outlet;
#X obj 88 165 route 0 1 2 3;
#X obj 115 249 outlet;
#X obj 169 250 outlet;
#X obj 217 252 outlet;
#X connect 0 0 1 0;
#X connect 1 0 5 0;
#X connect 2 0 0 0;
#X connect 3 0 2 0;
#X connect 5 0 4 0;
#X connect 5 1 6 0;
#X connect 5 2 7 0;
#X connect 5 3 8 0;
#X restore 286 275 pd out;
#X obj 366 199 bng 70 400 100 0 empty empty empty 17 7 0 10 -262144
-260097 -1;
#N canvas 785 176 427 409 out 0;
#X obj 51 70 random 4;
#X floatatom 51 94 5 0 0 0 - - -;
#X obj 51 45 delay 500;
#X obj 51 22 inlet;
#X obj 67 247 outlet;
#X obj 88 165 route 0 1 2 3;
#X obj 115 249 outlet;
#X obj 169 250 outlet;
#X obj 217 252 outlet;
#X connect 0 0 1 0;
#X connect 1 0 5 0;
#X connect 2 0 0 0;
#X connect 3 0 2 0;
#X connect 5 0 4 0;
#X connect 5 1 6 0;
#X connect 5 2 7 0;
#X connect 5 3 8 0;
#X restore 366 275 pd out;
#X obj 444 199 bng 70 400 100 0 empty empty empty 17 7 0 10 -262144
-260097 -1;
#N canvas 785 176 427 409 out 0;
#X obj 51 70 random 4;
#X floatatom 51 94 5 0 0 0 - - -;
#X obj 51 45 delay 500;
#X obj 51 22 inlet;
#X obj 67 247 outlet;
#X obj 88 165 route 0 1 2 3;
#X obj 115 249 outlet;
#X obj 169 250 outlet;
#X obj 217 252 outlet;
#X connect 0 0 1 0;
#X connect 1 0 5 0;
#X connect 2 0 0 0;
#X connect 3 0 2 0;
#X connect 5 0 4 0;
#X connect 5 1 6 0;
#X connect 5 2 7 0;
#X connect 5 3 8 0;
#X restore 444 275 pd out;
#X obj 522 199 bng 70 400 100 0 empty empty empty 17 7 0 10 -262144
-260097 -1;
#N canvas 785 176 427 409 out 0;
#X obj 51 70 random 4;
#X floatatom 51 94 5 0 0 0 - - -;
#X obj 51 45 delay 500;
#X obj 51 22 inlet;
#X obj 67 247 outlet;
#X obj 88 165 route 0 1 2 3;
#X obj 115 249 outlet;
#X obj 169 250 outlet;
#X obj 217 252 outlet;
#X connect 0 0 1 0;
#X connect 1 0 5 0;
#X connect 2 0 0 0;
#X connect 3 0 2 0;
#X connect 5 0 4 0;
#X connect 5 1 6 0;
#X connect 5 2 7 0;
#X connect 5 3 8 0;
#X restore 522 275 pd out;
#X obj 602 199 bng 70 400 100 0 empty empty empty 17 7 0 10 -262144
-260097 -1;
#N canvas 785 176 427 409 out 0;
#X obj 51 70 random 4;
#X floatatom 51 94 5 0 0 0 - - -;
#X obj 51 45 delay 500;
#X obj 51 22 inlet;
#X obj 67 247 outlet;
#X obj 88 165 route 0 1 2 3;
#X obj 115 249 outlet;
#X obj 169 250 outlet;
#X obj 217 252 outlet;
#X connect 0 0 1 0;
#X connect 1 0 5 0;
#X connect 2 0 0 0;
#X connect 3 0 2 0;
#X connect 5 0 4 0;
#X connect 5 1 6 0;
#X connect 5 2 7 0;
#X connect 5 3 8 0;
#X restore 602 275 pd out;
#X obj 682 199 bng 70 400 100 0 empty empty empty 17 7 0 10 -262144
-260097 -1;
#N canvas 785 176 427 409 out 0;
#X obj 51 70 random 4;
#X floatatom 51 94 5 0 0 0 - - -;
#X obj 51 45 delay 500;
#X obj 51 22 inlet;
#X obj 67 247 outlet;
#X obj 88 165 route 0 1 2 3;
#X obj 115 249 outlet;
#X obj 169 250 outlet;
#X obj 217 252 outlet;
#X connect 0 0 1 0;
#X connect 1 0 5 0;
#X connect 2 0 0 0;
#X connect 3 0 2 0;
#X connect 5 0 4 0;
#X connect 5 1 6 0;
#X connect 5 2 7 0;
#X connect 5 3 8 0;
#X restore 682 275 pd out;
#X obj 126 298 bng 70 400 100 0 empty empty empty 17 7 0 10 -262144
-260097 -1;
#N canvas 785 176 427 409 out 0;
#X obj 51 70 random 4;
#X floatatom 51 94 5 0 0 0 - - -;
#X obj 51 45 delay 500;
#X obj 51 22 inlet;
#X obj 67 247 outlet;
#X obj 88 165 route 0 1 2 3;
#X obj 115 249 outlet;
#X obj 169 250 outlet;
#X obj 217 252 outlet;
#X connect 0 0 1 0;
#X connect 1 0 5 0;
#X connect 2 0 0 0;
#X connect 3 0 2 0;
#X connect 5 0 4 0;
#X connect 5 1 6 0;
#X connect 5 2 7 0;
#X connect 5 3 8 0;
#X restore 126 374 pd out;
#X obj 206 298 bng 70 400 100 0 empty empty empty 17 7 0 10 -262144
-260097 -1;
#N canvas 785 176 427 409 out 0;
#X obj 51 70 random 4;
#X floatatom 51 94 5 0 0 0 - - -;
#X obj 51 45 delay 500;
#X obj 51 22 inlet;
#X obj 67 247 outlet;
#X obj 88 165 route 0 1 2 3;
#X obj 115 249 outlet;
#X obj 169 250 outlet;
#X obj 217 252 outlet;
#X connect 0 0 1 0;
#X connect 1 0 5 0;
#X connect 2 0 0 0;
#X connect 3 0 2 0;
#X connect 5 0 4 0;
#X connect 5 1 6 0;
#X connect 5 2 7 0;
#X connect 5 3 8 0;
#X restore 206 374 pd out;
#X obj 286 298 bng 70 400 100 0 empty empty empty 17 7 0 10 -262144
-260097 -1;
#N canvas 785 176 427 409 out 0;
#X obj 51 70 random 4;
#X floatatom 51 94 5 0 0 0 - - -;
#X obj 51 45 delay 500;
#X obj 51 22 inlet;
#X obj 67 247 outlet;
#X obj 88 165 route 0 1 2 3;
#X obj 115 249 outlet;
#X obj 169 250 outlet;
#X obj 217 252 outlet;
#X connect 0 0 1 0;
#X connect 1 0 5 0;
#X connect 2 0 0 0;
#X connect 3 0 2 0;
#X connect 5 0 4 0;
#X connect 5 1 6 0;
#X connect 5 2 7 0;
#X connect 5 3 8 0;
#X restore 286 374 pd out;
#X obj 366 298 bng 70 400 100 0 empty empty empty 17 7 0 10 -262144
-260097 -1;
#N canvas 785 176 427 409 out 0;
#X obj 51 70 random 4;
#X floatatom 51 94 5 0 0 0 - - -;
#X obj 51 45 delay 500;
#X obj 51 22 inlet;
#X obj 67 247 outlet;
#X obj 88 165 route 0 1 2 3;
#X obj 115 249 outlet;
#X obj 169 250 outlet;
#X obj 217 252 outlet;
#X connect 0 0 1 0;
#X connect 1 0 5 0;
#X connect 2 0 0 0;
#X connect 3 0 2 0;
#X connect 5 0 4 0;
#X connect 5 1 6 0;
#X connect 5 2 7 0;
#X connect 5 3 8 0;
#X restore 366 374 pd out;
#X obj 444 298 bng 70 400 100 0 empty empty empty 17 7 0 10 -262144
-260097 -1;
#N canvas 785 176 427 409 out 0;
#X obj 51 70 random 4;
#X floatatom 51 94 5 0 0 0 - - -;
#X obj 51 45 delay 500;
#X obj 51 22 inlet;
#X obj 67 247 outlet;
#X obj 88 165 route 0 1 2 3;
#X obj 115 249 outlet;
#X obj 169 250 outlet;
#X obj 217 252 outlet;
#X connect 0 0 1 0;
#X connect 1 0 5 0;
#X connect 2 0 0 0;
#X connect 3 0 2 0;
#X connect 5 0 4 0;
#X connect 5 1 6 0;
#X connect 5 2 7 0;
#X connect 5 3 8 0;
#X restore 444 374 pd out;
#X obj 522 298 bng 70 400 100 0 empty empty empty 17 7 0 10 -262144
-260097 -1;
#N canvas 785 176 427 409 out 0;
#X obj 51 70 random 4;
#X floatatom 51 94 5 0 0 0 - - -;
#X obj 51 45 delay 500;
#X obj 51 22 inlet;
#X obj 67 247 outlet;
#X obj 88 165 route 0 1 2 3;
#X obj 115 249 outlet;
#X obj 169 250 outlet;
#X obj 217 252 outlet;
#X connect 0 0 1 0;
#X connect 1 0 5 0;
#X connect 2 0 0 0;
#X connect 3 0 2 0;
#X connect 5 0 4 0;
#X connect 5 1 6 0;
#X connect 5 2 7 0;
#X connect 5 3 8 0;
#X restore 522 374 pd out;
#X obj 602 298 bng 70 400 100 0 empty empty empty 17 7 0 10 -262144
-260097 -1;
#N canvas 785 176 427 409 out 0;
#X obj 51 70 random 4;
#X floatatom 51 94 5 0 0 0 - - -;
#X obj 51 45 delay 500;
#X obj 51 22 inlet;
#X obj 67 247 outlet;
#X obj 88 165 route 0 1 2 3;
#X obj 115 249 outlet;
#X obj 169 250 outlet;
#X obj 217 252 outlet;
#X connect 0 0 1 0;
#X connect 1 0 5 0;
#X connect 2 0 0 0;
#X connect 3 0 2 0;
#X connect 5 0 4 0;
#X connect 5 1 6 0;
#X connect 5 2 7 0;
#X connect 5 3 8 0;
#X restore 602 374 pd out;
#X obj 682 298 bng 70 400 100 0 empty empty empty 17 7 0 10 -262144
-260097 -1;
#N canvas 785 176 427 409 out 0;
#X obj 51 70 random 4;
#X floatatom 51 94 5 0 0 0 - - -;
#X obj 51 45 delay 500;
#X obj 51 22 inlet;
#X obj 67 247 outlet;
#X obj 88 165 route 0 1 2 3;
#X obj 115 249 outlet;
#X obj 169 250 outlet;
#X obj 217 252 outlet;
#X connect 0 0 1 0;
#X connect 1 0 5 0;
#X connect 2 0 0 0;
#X connect 3 0 2 0;
#X connect 5 0 4 0;
#X connect 5 1 6 0;
#X connect 5 2 7 0;
#X connect 5 3 8 0;
#X restore 682 374 pd out;
#X obj 126 397 bng 70 400 100 0 empty empty empty 17 7 0 10 -262144
-260097 -1;
#N canvas 785 176 427 409 out 0;
#X obj 51 70 random 4;
#X floatatom 51 94 5 0 0 0 - - -;
#X obj 51 45 delay 500;
#X obj 51 22 inlet;
#X obj 67 247 outlet;
#X obj 88 165 route 0 1 2 3;
#X obj 115 249 outlet;
#X obj 169 250 outlet;
#X obj 217 252 outlet;
#X connect 0 0 1 0;
#X connect 1 0 5 0;
#X connect 2 0 0 0;
#X connect 3 0 2 0;
#X connect 5 0 4 0;
#X connect 5 1 6 0;
#X connect 5 2 7 0;
#X connect 5 3 8 0;
#X restore 126 473 pd out;
#X obj 206 397 bng 70 400 100 0 empty empty empty 17 7 0 10 -262144
-260097 -1;
#N canvas 785 176 427 409 out 0;
#X obj 51 70 random 4;
#X floatatom 51 94 5 0 0 0 - - -;
#X obj 51 45 delay 500;
#X obj 51 22 inlet;
#X obj 67 247 outlet;
#X obj 88 165 route 0 1 2 3;
#X obj 115 249 outlet;
#X obj 169 250 outlet;
#X obj 217 252 outlet;
#X connect 0 0 1 0;
#X connect 1 0 5 0;
#X connect 2 0 0 0;
#X connect 3 0 2 0;
#X connect 5 0 4 0;
#X connect 5 1 6 0;
#X connect 5 2 7 0;
#X connect 5 3 8 0;
#X restore 206 473 pd out;
#X obj 286 397 bng 70 400 100 0 empty empty empty 17 7 0 10 -262144
-260097 -1;
#N canvas 785 176 427 409 out 0;
#X obj 51 70 random 4;
#X floatatom 51 94 5 0 0 0 - - -;
#X obj 51 45 delay 500;
#X obj 51 22 inlet;
#X obj 67 247 outlet;
#X obj 88 165 route 0 1 2 3;
#X obj 115 249 outlet;
#X obj 169 250 outlet;
#X obj 217 252 outlet;
#X connect 0 0 1 0;
#X connect 1 0 5 0;
#X connect 2 0 0 0;
#X connect 3 0 2 0;
#X connect 5 0 4 0;
#X connect 5 1 6 0;
#X connect 5 2 7 0;
#X connect 5 3 8 0;
#X restore 286 473 pd out;
#X obj 366 397 bng 70 400 100 0 empty empty empty 17 7 0 10 -262144
-260097 -1;
#N canvas 785 176 427 409 out 0;
#X obj 51 70 random 4;
#X floatatom 51 94 5 0 0 0 - - -;
#X obj 51 45 delay 500;
#X obj 51 22 inlet;
#X obj 67 247 outlet;
#X obj 88 165 route 0 1 2 3;
#X obj 115 249 outlet;
#X obj 169 250 outlet;
#X obj 217 252 outlet;
#X connect 0 0 1 0;
#X connect 1 0 5 0;
#X connect 2 0 0 0;
#X connect 3 0 2 0;
#X connect 5 0 4 0;
#X connect 5 1 6 0;
#X connect 5 2 7 0;
#X connect 5 3 8 0;
#X restore 366 473 pd out;
#X obj 444 397 bng 70 400 100 0 empty empty empty 17 7 0 10 -262144
-260097 -1;
#N canvas 785 176 427 409 out 0;
#X obj 51 70 random 4;
#X floatatom 51 94 5 0 0 0 - - -;
#X obj 51 45 delay 500;
#X obj 51 22 inlet;
#X obj 67 247 outlet;
#X obj 88 165 route 0 1 2 3;
#X obj 115 249 outlet;
#X obj 169 250 outlet;
#X obj 217 252 outlet;
#X connect 0 0 1 0;
#X connect 1 0 5 0;
#X connect 2 0 0 0;
#X connect 3 0 2 0;
#X connect 5 0 4 0;
#X connect 5 1 6 0;
#X connect 5 2 7 0;
#X connect 5 3 8 0;
#X restore 444 473 pd out;
#X obj 522 397 bng 70 400 100 0 empty empty empty 17 7 0 10 -262144
-260097 -1;
#N canvas 785 176 427 409 out 0;
#X obj 51 70 random 4;
#X floatatom 51 94 5 0 0 0 - - -;
#X obj 51 45 delay 500;
#X obj 51 22 inlet;
#X obj 67 247 outlet;
#X obj 88 165 route 0 1 2 3;
#X obj 115 249 outlet;
#X obj 169 250 outlet;
#X obj 217 252 outlet;
#X connect 0 0 1 0;
#X connect 1 0 5 0;
#X connect 2 0 0 0;
#X connect 3 0 2 0;
#X connect 5 0 4 0;
#X connect 5 1 6 0;
#X connect 5 2 7 0;
#X connect 5 3 8 0;
#X restore 522 473 pd out;
#X obj 602 397 bng 70 400 100 0 empty empty empty 17 7 0 10 -262144
-260097 -1;
#N canvas 785 176 427 409 out 0;
#X obj 51 70 random 4;
#X floatatom 51 94 5 0 0 0 - - -;
#X obj 51 45 delay 500;
#X obj 51 22 inlet;
#X obj 67 247 outlet;
#X obj 88 165 route 0 1 2 3;
#X obj 115 249 outlet;
#X obj 169 250 outlet;
#X obj 217 252 outlet;
#X connect 0 0 1 0;
#X connect 1 0 5 0;
#X connect 2 0 0 0;
#X connect 3 0 2 0;
#X connect 5 0 4 0;
#X connect 5 1 6 0;
#X connect 5 2 7 0;
#X connect 5 3 8 0;
#X restore 602 473 pd out;
#X obj 682 397 bng 70 400 100 0 empty empty empty 17 7 0 10 -262144
-260097 -1;
#N canvas 785 176 427 409 out 0;
#X obj 51 70 random 4;
#X floatatom 51 94 5 0 0 0 - - -;
#X obj 51 45 delay 500;
#X obj 51 22 inlet;
#X obj 67 247 outlet;
#X obj 88 165 route 0 1 2 3;
#X obj 115 249 outlet;
#X obj 169 250 outlet;
#X obj 217 252 outlet;
#X connect 0 0 1 0;
#X connect 1 0 5 0;
#X connect 2 0 0 0;
#X connect 3 0 2 0;
#X connect 5 0 4 0;
#X connect 5 1 6 0;
#X connect 5 2 7 0;
#X connect 5 3 8 0;
#X restore 682 473 pd out;
#X obj 126 496 bng 70 400 100 0 empty empty empty 17 7 0 10 -262144
-260097 -1;
#N canvas 785 176 427 409 out 0;
#X obj 51 70 random 4;
#X floatatom 51 94 5 0 0 0 - - -;
#X obj 51 45 delay 500;
#X obj 51 22 inlet;
#X obj 67 247 outlet;
#X obj 88 165 route 0 1 2 3;
#X obj 115 249 outlet;
#X obj 169 250 outlet;
#X obj 217 252 outlet;
#X connect 0 0 1 0;
#X connect 1 0 5 0;
#X connect 2 0 0 0;
#X connect 3 0 2 0;
#X connect 5 0 4 0;
#X connect 5 1 6 0;
#X connect 5 2 7 0;
#X connect 5 3 8 0;
#X restore 126 572 pd out;
#X obj 206 496 bng 70 400 100 0 empty empty empty 17 7 0 10 -262144
-260097 -1;
#N canvas 785 176 427 409 out 0;
#X obj 51 70 random 4;
#X floatatom 51 94 5 0 0 0 - - -;
#X obj 51 45 delay 500;
#X obj 51 22 inlet;
#X obj 67 247 outlet;
#X obj 88 165 route 0 1 2 3;
#X obj 115 249 outlet;
#X obj 169 250 outlet;
#X obj 217 252 outlet;
#X connect 0 0 1 0;
#X connect 1 0 5 0;
#X connect 2 0 0 0;
#X connect 3 0 2 0;
#X connect 5 0 4 0;
#X connect 5 1 6 0;
#X connect 5 2 7 0;
#X connect 5 3 8 0;
#X restore 206 572 pd out;
#X obj 286 496 bng 70 400 100 0 empty empty empty 17 7 0 10 -262144
-260097 -1;
#N canvas 785 176 427 409 out 0;
#X obj 51 70 random 4;
#X floatatom 51 94 5 0 0 0 - - -;
#X obj 51 45 delay 500;
#X obj 51 22 inlet;
#X obj 67 247 outlet;
#X obj 88 165 route 0 1 2 3;
#X obj 115 249 outlet;
#X obj 169 250 outlet;
#X obj 217 252 outlet;
#X connect 0 0 1 0;
#X connect 1 0 5 0;
#X connect 2 0 0 0;
#X connect 3 0 2 0;
#X connect 5 0 4 0;
#X connect 5 1 6 0;
#X connect 5 2 7 0;
#X connect 5 3 8 0;
#X restore 286 572 pd out;
#X obj 366 496 bng 70 400 100 0 empty empty empty 17 7 0 10 -262144
-260097 -1;
#N canvas 785 176 427 409 out 0;
#X obj 51 70 random 4;
#X floatatom 51 94 5 0 0 0 - - -;
#X obj 51 45 delay 500;
#X obj 51 22 inlet;
#X obj 67 247 outlet;
#X obj 88 165 route 0 1 2 3;
#X obj 115 249 outlet;
#X obj 169 250 outlet;
#X obj 217 252 outlet;
#X connect 0 0 1 0;
#X connect 1 0 5 0;
#X connect 2 0 0 0;
#X connect 3 0 2 0;
#X connect 5 0 4 0;
#X connect 5 1 6 0;
#X connect 5 2 7 0;
#X connect 5 3 8 0;
#X restore 366 572 pd out;
#X obj 444 496 bng 70 400 100 0 empty empty empty 17 7 0 10 -262144
-260097 -1;
#N canvas 785 176 427 409 out 0;
#X obj 51 70 random 4;
#X floatatom 51 94 5 0 0 0 - - -;
#X obj 51 45 delay 500;
#X obj 51 22 inlet;
#X obj 67 247 outlet;
#X obj 88 165 route 0 1 2 3;
#X obj 115 249 outlet;
#X obj 169 250 outlet;
#X obj 217 252 outlet;
#X connect 0 0 1 0;
#X connect 1 0 5 0;
#X connect 2 0 0 0;
#X connect 3 0 2 0;
#X connect 5 0 4 0;
#X connect 5 1 6 0;
#X connect 5 2 7 0;
#X connect 5 3 8 0;
#X restore 444 572 pd out;
#X obj 522 496 bng 70 400 100 0 empty empty empty 17 7 0 10 -262144
-260097 -1;
#N canvas 785 176 427 409 out 0;
#X obj 51 70 random 4;
#X floatatom 51 94 5 0 0 0 - - -;
#X obj 51 45 delay 500;
#X obj 51 22 inlet;
#X obj 67 247 outlet;
#X obj 88 165 route 0 1 2 3;
#X obj 115 249 outlet;
#X obj 169 250 outlet;
#X obj 217 252 outlet;
#X connect 0 0 1 0;
#X connect 1 0 5 0;
#X connect 2 0 0 0;
#X connect 3 0 2 0;
#X connect 5 0 4 0;
#X connect 5 1 6 0;
#X connect 5 2 7 0;
#X connect 5 3 8 0;
#X restore 522 572 pd out;
#X obj 602 496 bng 70 400 100 0 empty empty empty 17 7 0 10 -262144
-260097 -1;
#N canvas 785 176 427 409 out 0;
#X obj 51 70 random 4;
#X floatatom 51 94 5 0 0 0 - - -;
#X obj 51 45 delay 500;
#X obj 51 22 inlet;
#X obj 67 247 outlet;
#X obj 88 165 route 0 1 2 3;
#X obj 115 249 outlet;
#X obj 169 250 outlet;
#X obj 217 252 outlet;
#X connect 0 0 1 0;
#X connect 1 0 5 0;
#X connect 2 0 0 0;
#X connect 3 0 2 0;
#X connect 5 0 4 0;
#X connect 5 1 6 0;
#X connect 5 2 7 0;
#X connect 5 3 8 0;
#X restore 602 572 pd out;
#X obj 682 496 bng 70 400 100 0 empty empty empty 17 7 0 10 -262144
-260097 -1;
#N canvas 785 176 427 409 out 0;
#X obj 51 70 random 4;
#X floatatom 51 94 5 0 0 0 - - -;
#X obj 51 45 delay 500;
#X obj 51 22 inlet;
#X obj 67 247 outlet;
#X obj 88 165 route 0 1 2 3;
#X obj 115 249 outlet;
#X obj 169 250 outlet;
#X obj 217 252 outlet;
#X connect 0 0 1 0;
#X connect 1 0 5 0;
#X connect 2 0 0 0;
#X connect 3 0 2 0;
#X connect 5 0 4 0;
#X connect 5 1 6 0;
#X connect 5 2 7 0;
#X connect 5 3 8 0;
#X restore 682 572 pd out;
#X connect 0 0 1 0;
#X connect 1 0 0 0;
#X connect 1 1 2 0;
#X connect 1 2 16 0;
#X connect 1 3 0 0;
#X connect 2 0 3 0;
#X connect 3 0 2 0;
#X connect 3 1 4 0;
#X connect 3 2 18 0;
#X connect 3 3 0 0;
#X connect 4 0 5 0;
#X connect 5 0 4 0;
#X connect 5 1 6 0;
#X connect 5 2 20 0;
#X connect 5 3 2 0;
#X connect 6 0 7 0;
#X connect 7 0 6 0;
#X connect 7 1 8 0;
#X connect 7 2 22 0;
#X connect 7 3 4 0;
#X connect 8 0 9 0;
#X connect 9 0 8 0;
#X connect 9 1 10 0;
#X connect 9 2 24 0;
#X connect 9 3 6 0;
#X connect 10 0 11 0;
#X connect 11 0 10 0;
#X connect 11 1 12 0;
#X connect 11 2 26 0;
#X connect 11 3 8 0;
#X connect 12 0 13 0;
#X connect 13 0 12 0;
#X connect 13 1 14 0;
#X connect 13 2 28 0;
#X connect 13 3 10 0;
#X connect 14 0 15 0;
#X connect 15 0 14 0;
#X connect 15 1 14 0;
#X connect 15 2 30 0;
#X connect 15 3 12 0;
#X connect 16 0 17 0;
#X connect 17 0 0 0;
#X connect 17 1 18 0;
#X connect 17 2 32 0;
#X connect 17 3 16 0;
#X connect 18 0 19 0;
#X connect 19 0 2 0;
#X connect 19 1 20 0;
#X connect 19 2 34 0;
#X connect 19 3 16 0;
#X connect 20 0 21 0;
#X connect 21 0 4 0;
#X connect 21 1 22 0;
#X connect 21 2 36 0;
#X connect 21 3 18 0;
#X connect 22 0 23 0;
#X connect 23 0 6 0;
#X connect 23 1 24 0;
#X connect 23 2 38 0;
#X connect 23 3 20 0;
#X connect 24 0 25 0;
#X connect 25 0 8 0;
#X connect 25 1 26 0;
#X connect 25 2 40 0;
#X connect 25 3 22 0;
#X connect 26 0 27 0;
#X connect 27 0 10 0;
#X connect 27 1 28 0;
#X connect 27 2 42 0;
#X connect 27 3 24 0;
#X connect 28 0 29 0;
#X connect 29 0 12 0;
#X connect 29 1 30 0;
#X connect 29 2 44 0;
#X connect 29 3 26 0;
#X connect 30 0 31 0;
#X connect 31 0 14 0;
#X connect 31 1 30 0;
#X connect 31 2 46 0;
#X connect 31 3 28 0;
#X connect 32 0 33 0;
#X connect 33 0 16 0;
#X connect 33 1 34 0;
#X connect 33 2 48 0;
#X connect 33 3 32 0;
#X connect 34 0 35 0;
#X connect 35 0 18 0;
#X connect 35 1 36 0;
#X connect 35 2 50 0;
#X connect 35 3 32 0;
#X connect 36 0 37 0;
#X connect 37 0 20 0;
#X connect 37 1 38 0;
#X connect 37 2 52 0;
#X connect 37 3 34 0;
#X connect 38 0 39 0;
#X connect 39 0 22 0;
#X connect 39 1 40 0;
#X connect 39 2 54 0;
#X connect 39 3 36 0;
#X connect 40 0 41 0;
#X connect 41 0 24 0;
#X connect 41 1 42 0;
#X connect 41 2 56 0;
#X connect 41 3 38 0;
#X connect 42 0 43 0;
#X connect 43 0 26 0;
#X connect 43 1 44 0;
#X connect 43 2 58 0;
#X connect 43 3 40 0;
#X connect 44 0 45 0;
#X connect 45 0 28 0;
#X connect 45 1 46 0;
#X connect 45 2 60 0;
#X connect 45 3 42 0;
#X connect 46 0 47 0;
#X connect 47 0 30 0;
#X connect 47 1 46 0;
#X connect 47 3 44 0;
#X connect 48 0 49 0;
#X connect 49 0 32 0;
#X connect 49 1 50 0;
#X connect 49 2 64 0;
#X connect 49 3 48 0;
#X connect 50 0 51 0;
#X connect 51 0 34 0;
#X connect 51 1 52 0;
#X connect 51 2 66 0;
#X connect 51 3 48 0;
#X connect 52 0 53 0;
#X connect 53 0 36 0;
#X connect 53 1 54 0;
#X connect 53 2 68 0;
#X connect 53 3 50 0;
#X connect 54 0 55 0;
#X connect 55 0 38 0;
#X connect 55 1 56 0;
#X connect 55 2 70 0;
#X connect 55 3 52 0;
#X connect 56 0 57 0;
#X connect 57 0 40 0;
#X connect 57 1 58 0;
#X connect 57 2 72 0;
#X connect 57 3 54 0;
#X connect 58 0 59 0;
#X connect 59 0 42 0;
#X connect 59 1 60 0;
#X connect 59 2 74 0;
#X connect 59 3 56 0;
#X connect 60 0 61 0;
#X connect 61 0 44 0;
#X connect 61 1 62 0;
#X connect 61 2 76 0;
#X connect 61 3 58 0;
#X connect 62 0 63 0;
#X connect 63 0 46 0;
#X connect 63 1 62 0;
#X connect 63 2 78 0;
#X connect 63 3 60 0;
#X connect 64 0 65 0;
#X connect 65 0 48 0;
#X connect 65 1 66 0;
#X connect 65 2 64 0;
#X connect 65 3 64 0;
#X connect 66 0 67 0;
#X connect 67 0 50 0;
#X connect 67 1 68 0;
#X connect 67 2 66 0;
#X connect 67 3 64 0;
#X connect 68 0 69 0;
#X connect 69 0 52 0;
#X connect 69 1 70 0;
#X connect 69 2 68 0;
#X connect 69 3 66 0;
#X connect 70 0 71 0;
#X connect 71 0 54 0;
#X connect 71 1 72 0;
#X connect 71 2 70 0;
#X connect 71 3 68 0;
#X connect 72 0 73 0;
#X connect 73 0 56 0;
#X connect 73 1 74 0;
#X connect 73 2 72 0;
#X connect 73 3 70 0;
#X connect 74 0 75 0;
#X connect 75 0 58 0;
#X connect 75 1 76 0;
#X connect 75 2 74 0;
#X connect 75 3 72 0;
#X connect 76 0 77 0;
#X connect 77 0 60 0;
#X connect 77 1 78 0;
#X connect 77 2 76 0;
#X connect 77 3 74 0;
#X connect 78 0 79 0;
#X connect 79 0 62 0;
#X connect 79 1 78 0;
#X connect 79 2 78 0;
#X connect 79 3 76 0;
